<svg xmlns="http://www.w3.org/2000/svg" viewBox="0 0 434.41 44.09"><title>Fichier 2</title><g id="Calque_2" data-name="Calque 2"><g id="Calque_1-2" data-name="Calque 1"><path d="M19,43.51,4.42,5.54H4.19c.27,3,.41,6.58.41,10.72V43.51H0V.67H7.5L21.06,36h.24L35,.67h7.44V43.51h-5V15.91c0-3.17.14-6.6.41-10.31h-.23L23,43.51Z" style="fill:#81ae16"/><path d="M78.05,43.51H54.17V.67H78.05V5.1H59.15V18.9H76.9v4.39H59.15V39.05h18.9Z" style="fill:#dd8404"/><path d="M106.49,43.51,92,5.54h-.23c.27,3,.41,6.58.41,10.72V43.51h-4.6V.67H95L108.6,36h.24L122.52.67H130V43.51h-5V15.91c0-3.17.14-6.6.41-10.31h-.23L110.51,43.51Z" style="fill:#7d6f4a"/><path d="M178.89,22q0,10.29-5.2,16.17t-14.46,5.89q-9.47,0-14.61-5.78T139.48,22q0-10.45,5.16-16.21T159.29,0q9.22,0,14.41,5.86T178.89,22Zm-34.13,0q0,8.7,3.7,13.2t10.77,4.5q7.11,0,10.75-4.49T173.61,22q0-8.64-3.61-13.11T159.29,4.45q-7.12,0-10.83,4.5T144.76,22Z" style="fill:#939dac"/><path d="M193.42,25.69V43.51h-5V.67h11.75q7.88,0,11.64,3t3.77,9.08q0,8.51-8.62,11.49l11.63,19.25h-5.89L202.35,25.69Zm0-4.27h6.82q5.28,0,7.74-2.1c1.64-1.39,2.46-3.49,2.46-6.28s-.84-4.88-2.51-6.13S203.58,5,199.89,5h-6.47Z" style="fill:#cbf82b"/><path d="M236.43,22.09,247.85.67h5.39L239,26.89V43.51h-5V27.13L219.64.67h5.45Z" style="fill:#7e2800"/><path d="M293.55,21.06h14.57V41.89a47.36,47.36,0,0,1-6.92,1.65,52.8,52.8,0,0,1-8.14.55q-9.74,0-15.15-5.78t-5.42-16.22a24.46,24.46,0,0,1,2.68-11.7,18.16,18.16,0,0,1,7.72-7.68A25,25,0,0,1,294.7.06a32.23,32.23,0,0,1,12.77,2.52L305.54,7a28.56,28.56,0,0,0-11.16-2.46q-7.83,0-12.22,4.66t-4.4,12.92q0,8.67,4.24,13.15t12.43,4.49a36.59,36.59,0,0,0,8.7-1V25.52h-9.58Z" style="fill:#ffd400"/><path d="M345.32,43.51,340,29.88H322.82l-5.27,13.63h-5L329.44.5h4.19l16.85,43ZM338.44,25.4l-5-13.27c-.65-1.68-1.31-3.74-2-6.18a54.07,54.07,0,0,1-1.84,6.18l-5,13.27Z" style="fill:#81ae16"/><path d="M375.32,43.51l-14.53-38h-.23c.27,3,.41,6.58.41,10.72V43.51h-4.6V.67h7.5L377.43,36h.24L391.35.67h7.44V43.51h-5V15.91c0-3.17.13-6.6.41-10.31H394L379.34,43.51Z" style="fill:#939dac"/><path d="M434.41,43.51H410.54V.67h23.87V5.1H415.52V18.9h17.75v4.39H415.52V39.05h18.89Z" style="fill:#dd8404"/></g></g></svg>