<svg xmlns="http://www.w3.org/2000/svg" xmlns:xlink="http://www.w3.org/1999/xlink" viewBox="0 0 442.15 60.12"><defs><clipPath id="clip-path" transform="translate(-28.86 -46.01)"><rect x="25.5" y="41" width="448.5" height="68" style="fill:none"/></clipPath><clipPath id="clip-path-2" transform="translate(-28.86 -46.01)"><rect width="527" height="144" style="fill:none"/></clipPath></defs><title>title</title><g id="Calque_2" data-name="Calque 2"><g id="Calque_2-2" data-name="Calque 2"><g style="clip-path:url(#clip-path)"><g style="clip-path:url(#clip-path-2)"><path d="M53.82,103.39,33.94,67.92l-.23,0q1.07,4.4,2,10.55l3.94,27-4.55.66-6.2-42.38,7.42-1.08,18.54,33,.23,0,8.42-36.94,7.37-1.08L77,100l-4.93.72-4-27.3c-.45-3.13-.82-6.55-1.08-10.27l-.23,0-9,39.63Z" transform="translate(-28.86 -46.01)" style="fill:#81ae16"/><path d="M112.12,96,88.39,98.69,83.57,56.13l23.73-2.69.5,4.4L89,60l1.55,13.71,17.64-2,.5,4.37L91.07,78l1.77,15.67,18.78-2.13Z" transform="translate(-28.86 -46.01)" style="fill:#dd8404"/><path d="M140.12,93.47,122.59,56.79l-.24,0q.78,4.47,1.27,10.65l2.19,27.16-4.58.37L117.79,52.3l7.47-.6,16.36,34.12h.23l10.8-36.32,7.42-.6,3.44,42.7-5,.4-2.22-27.51c-.25-3.16-.39-6.59-.42-10.31h-.23l-11.56,39Z" transform="translate(-28.86 -46.01)" style="fill:#7d6f4a"/><path d="M211.06,67.9q.45,10.27-4.5,16.38t-14.19,6.5q-9.45.42-14.84-5.15t-5.84-16.09q-.45-10.46,4.45-16.43t14.39-6.38q9.22-.39,14.65,5.23T211.06,67.9ZM177,69.37q.38,8.68,4.27,13c2.6,2.88,6.25,4.23,11,4s8.25-1.85,10.54-4.94,3.31-7.54,3.06-13.36-1.64-10.07-4.18-12.94-6.17-4.2-10.89-4-8.28,1.86-10.62,5S176.72,63.65,177,69.37Z" transform="translate(-28.86 -46.01)" style="fill:#939dac"/><path d="M226,71.33l.22,17.81-5,.06-.53-42.83,11.75-.14q7.88-.1,11.68,2.87t3.88,9q.11,8.49-8.47,11.59l11.87,19.1-5.89.07L234.93,71.22Zm-.05-4.28,6.83-.08q5.26-.06,7.7-2.19c1.63-1.42,2.42-3.52,2.39-6.32s-.9-4.86-2.58-6.09-4.38-1.82-8.07-1.77l-6.47.08Z" transform="translate(-28.86 -46.01)" style="fill:#dd8404"/><path d="M269.26,67.65,281,46.39l5.39.08-14.65,26-.23,16.61-5-.07.23-16.37L252.77,46l5.45.08Z" transform="translate(-28.86 -46.01)" style="fill:#7e2800"/><path d="M326.85,68.6l14.54.77-1.1,20.8a46.55,46.55,0,0,1-7,1.28,53.92,53.92,0,0,1-8.16.12q-9.7-.51-14.82-6.58t-4.55-16.48A24.46,24.46,0,0,1,309.05,57a18.18,18.18,0,0,1,8.12-7.25,25,25,0,0,1,11.93-2,32.17,32.17,0,0,1,12.62,3.19l-2.16,4.29a28.42,28.42,0,0,0-11-3.05q-7.8-.42-12.44,4T311,68.79c-.3,5.77.87,10.23,3.54,13.36s6.72,4.85,12.18,5.13a36.92,36.92,0,0,0,8.74-.56l.7-13.16-9.57-.51Z" transform="translate(-28.86 -46.01)" style="fill:#ffd400"/><path d="M377,94.79l-4.14-14-17.11-1.48L349.29,92.4l-5-.44,20.59-41.38,4.17.36,13.07,44.3Zm-5.3-18.63-3.82-13.65c-.49-1.73-1-3.84-1.45-6.33a56,56,0,0,1-2.37,6L357.85,75Z" transform="translate(-28.86 -46.01)" style="fill:#81ae16"/><path d="M406.46,97.87l-10-39.39-.23,0q-.1,4.53-.83,10.7l-3.15,27.06-4.57-.53,4.95-42.55L400,54l9.39,36.67.23,0,17.68-33.51,7.39.86-5,42.55-4.94-.58L428,72.6q.56-4.71,1.6-10.2l-.23,0-18.94,36Z" transform="translate(-28.86 -46.01)" style="fill:#939dac"/><path d="M464.69,105.78l-23.61-3.52,6.31-42.37L471,63.41l-.65,4.38L451.67,65l-2,13.65,17.56,2.62-.65,4.34L449,83l-2.32,15.59,18.69,2.78Z" transform="translate(-28.86 -46.01)" style="fill:#dd8404"/></g></g></g></g></svg>